<svg width="20" height="20" viewBox="0 0 20 20" fill="none" xmlns="http://www.w3.org/2000/svg">
<path d="M7.24219 16.8759H3.75C3.58424 16.8759 3.42527 16.8101 3.30806 16.6928C3.19085 16.5756 3.125 16.4167 3.125 16.2509V12.7587C3.12472 12.6776 3.14044 12.5971 3.17128 12.5221C3.20211 12.447 3.24745 12.3787 3.30469 12.3212L12.6797 2.94622C12.7378 2.88717 12.8072 2.84027 12.8836 2.80826C12.9601 2.77625 13.0421 2.75977 13.125 2.75977C13.2079 2.75977 13.2899 2.77625 13.3664 2.80826C13.4428 2.84027 13.5122 2.88717 13.5703 2.94622L17.0547 6.4306C17.1137 6.48875 17.1606 6.55807 17.1927 6.63452C17.2247 6.71097 17.2411 6.79303 17.2411 6.87591C17.2411 6.95879 17.2247 7.04084 17.1927 7.11729C17.1606 7.19374 17.1137 7.26306 17.0547 7.32122L7.67969 16.6962C7.62216 16.7535 7.55391 16.7988 7.47884 16.8296C7.40376 16.8605 7.32335 16.8762 7.24219 16.8759V16.8759Z" stroke="#2683F2" stroke-width="1.5" stroke-linecap="round" stroke-linejoin="round"/>
<path d="M10.625 5L15 9.375" stroke="#2683F2" stroke-width="1.5" stroke-linecap="round" stroke-linejoin="round"/>
<path d="M12.8125 7.1875L5.3125 14.6875" stroke="#2683F2" stroke-width="1.5" stroke-linecap="round" stroke-linejoin="round"/>
<path d="M7.46094 16.8359L3.16406 12.5391" stroke="#2683F2" stroke-width="1.5" stroke-linecap="round" stroke-linejoin="round"/>
</svg>
